# Blender 4.5.11 LTS
# www.blender.org
mtllib coll.mtl
o Cube
v -1.000000 -1.000000 1.000000
v -1.000000 1.000000 1.000000
v -1.000000 -1.000000 -1.000000
v -1.000000 1.000000 -1.000000
v 1.000000 -1.000000 1.000000
v 1.000000 1.000000 1.000000
v 1.000000 -1.000000 -1.000000
v 1.000000 1.000000 -1.000000
v -1.000000 -1.000000 2.025599
v -1.000000 1.000000 2.025599
v 1.000000 1.000000 2.025599
v 1.000000 -1.000000 2.025599
v -0.615998 -1.000000 2.025599
v -0.615998 0.615998 2.025599
v 0.615998 0.615998 2.025599
v 0.615998 -1.000000 2.025599
v -0.615998 -1.000000 3.568727
v -0.615998 0.615998 3.568727
v 0.615998 0.615998 3.568727
v 0.615998 -1.000000 3.568727
v -0.615998 -1.000000 4.836980
v -0.615998 0.615998 4.836980
v 0.615998 0.615998 4.836980
v 0.615998 -1.000000 4.836980
v 1.328832 0.615998 3.568727
v 1.328832 -1.000000 3.568727
v 1.328832 0.615998 4.836980
v 1.328832 -1.000000 4.836980
v 2.368797 1.000000 -1.000000
v 2.368797 -1.000000 -1.000000
v 2.368797 -1.000000 1.000000
v 2.368797 1.000000 1.000000
v 1.000000 3.078118 -1.000000
v 1.000000 3.078118 1.000000
v 2.368797 3.078118 -1.000000
v 2.368797 3.078118 1.000000
v 3.619356 1.000000 -1.000000
v 3.619356 1.000000 1.000000
v 3.619356 3.078118 -1.000000
v 3.619356 3.078118 1.000000
vn -1.0000 -0.0000 -0.0000
vn -0.0000 -0.0000 -1.0000
vn -0.0000 -0.0000 1.0000
vn -0.0000 1.0000 -0.0000
vn -0.0000 -1.0000 -0.0000
vn 1.0000 -0.0000 -0.0000
vt 0.625000 0.000000
vt 0.375000 0.250000
vt 0.375000 0.000000
vt 0.625000 0.250000
vt 0.375000 0.500000
vt 0.375000 0.750000
vt 0.625000 0.750000
vt 0.875000 0.750000
vt 0.125000 0.750000
vt 0.125000 0.500000
vt 0.875000 0.500000
vt 0.625000 0.500000
vt 0.375000 1.000000
vt 0.625000 1.000000
s 0
f 2/1/1 3/2/1 1/3/1
f 4/4/2 7/5/2 3/2/2
f 5/6/3 32/7/3 6/7/3
f 2/8/4 11/7/4 6/7/4
f 7/5/5 1/9/5 3/10/5
f 4/11/4 6/7/4 8/12/4
f 9/9/4 16/6/4 13/9/4
f 6/7/6 12/6/6 5/6/6
f 1/3/1 10/1/1 2/1/1
f 5/6/5 9/9/5 1/9/5
f 16/6/5 17/9/5 13/9/5
f 9/3/3 14/1/3 10/1/3
f 10/8/3 15/7/3 11/7/3
f 12/6/3 15/7/3 16/6/3
f 18/8/4 23/7/4 19/7/4
f 13/3/1 18/1/1 14/1/1
f 14/8/4 19/7/4 15/7/4
f 15/7/6 20/6/6 16/6/6
f 23/7/3 21/13/3 24/6/3
f 20/6/5 28/6/5 24/6/5
f 20/6/5 21/9/5 17/9/5
f 17/3/1 22/1/1 18/1/1
f 29/12/6 31/6/6 30/5/6
f 19/7/2 26/6/2 20/6/2
f 23/7/4 25/7/4 19/7/4
f 24/6/3 27/7/3 23/7/3
f 7/5/5 31/6/5 5/6/5
f 35/12/2 37/12/2 29/12/2
f 8/12/2 30/5/2 7/5/2
f 34/7/4 35/12/4 33/12/4
f 6/7/1 33/12/1 8/12/1
f 8/12/2 35/12/2 29/12/2
f 32/7/3 34/7/3 6/7/3
f 37/12/6 40/7/6 38/7/6
f 29/12/5 38/7/5 32/7/5
f 32/7/3 40/7/3 36/7/3
f 36/7/4 39/12/4 35/12/4
f 2/1/1 4/4/1 3/2/1
f 4/4/2 8/12/2 7/5/2
f 5/6/3 31/6/3 32/7/3
f 2/8/4 10/8/4 11/7/4
f 7/5/5 5/6/5 1/9/5
f 4/11/4 2/8/4 6/7/4
f 9/9/4 12/6/4 16/6/4
f 6/7/6 11/7/6 12/6/6
f 1/3/1 9/3/1 10/1/1
f 5/6/5 12/6/5 9/9/5
f 16/6/5 20/6/5 17/9/5
f 9/3/3 13/3/3 14/1/3
f 10/8/3 14/8/3 15/7/3
f 12/6/3 11/7/3 15/7/3
f 18/8/4 22/8/4 23/7/4
f 13/3/1 17/3/1 18/1/1
f 14/8/4 18/8/4 19/7/4
f 15/7/6 19/7/6 20/6/6
f 23/7/3 22/14/3 21/13/3
f 20/6/5 26/6/5 28/6/5
f 20/6/5 24/6/5 21/9/5
f 17/3/1 21/3/1 22/1/1
f 29/12/6 32/7/6 31/6/6
f 19/7/2 25/7/2 26/6/2
f 23/7/4 27/7/4 25/7/4
f 24/6/3 28/6/3 27/7/3
f 7/5/5 30/5/5 31/6/5
f 35/12/2 39/12/2 37/12/2
f 8/12/2 29/12/2 30/5/2
f 34/7/4 36/7/4 35/12/4
f 6/7/1 34/7/1 33/12/1
f 8/12/2 33/12/2 35/12/2
f 32/7/3 36/7/3 34/7/3
f 37/12/6 39/12/6 40/7/6
f 29/12/5 37/12/5 38/7/5
f 32/7/3 38/7/3 40/7/3
f 36/7/4 40/7/4 39/12/4
